<svg width="315" height="309" viewBox="0 0 315 309" fill="none" xmlns="http://www.w3.org/2000/svg">
<g clip-path="url(#clip0_38_795)">
<path d="M151.308 286.069C150.543 286.119 149.79 286.161 149.025 286.212C149.263 287.069 149.48 287.924 149.719 288.782C146.844 286.466 139.237 286.733 135.514 285.985C131.041 285.086 126.58 284.104 122.141 283.029C116.657 281.708 103.269 280.632 100.347 274.823C97.0294 268.219 105.821 260.016 109.102 255.267C112.199 250.771 115.306 246.286 118.403 241.79C120.096 239.338 121.79 236.886 123.483 234.434C124.041 233.615 124.619 232.8 125.176 231.981C126.36 228.708 127.352 228.711 128.176 231.995C129.768 232.223 131.34 232.449 132.933 232.677C132.555 232.794 132.155 232.908 131.776 233.024C132.769 231.745 133.774 230.456 134.766 229.176C134.296 228.456 133.829 227.715 133.358 226.995C136.518 228.454 136.724 233.242 133.336 234.542C130.703 235.555 129.136 235.212 126.824 233.565C125.439 232.575 124.677 230.68 124.951 229.019C125.016 228.611 125.078 228.224 125.143 227.817C125.389 226.216 126.499 224.45 128.133 223.968C134.187 222.216 139.064 227.054 136.282 233.029C133.888 238.183 129.277 242.975 126.008 247.64C122.305 252.916 118.581 258.188 114.877 263.464C113.231 265.805 110.96 268.185 109.731 270.758C109.005 272.439 108.586 272.379 108.488 270.547C110.208 271.189 111.93 271.811 113.655 272.411C118.827 274.233 124.031 275.974 129.272 277.592C135.15 279.409 141.071 281.06 147.029 282.589C149.745 283.288 152.007 283.463 153.065 286.267C153.405 287.161 153.137 288.213 152.365 288.798C151.308 289.598 150.623 289.606 149.376 289.192C148.557 288.925 148.228 288.022 148.257 287.246C148.265 287.108 148.272 286.97 148.268 286.841C148.327 285.438 150.558 284.806 151.299 286.057L151.308 286.069Z" fill="#252525"/>
<path d="M103.295 270.539C119.444 264.503 132.816 254.946 144.156 242.039C147.189 238.592 152.901 242.93 149.89 246.455C138.116 260.219 122.459 270.015 105.082 274.998C102.196 275.825 100.362 271.626 103.295 270.539Z" fill="#252525"/>
<path d="M160.474 227.306C165.085 221.23 169.352 214.923 173.072 208.238C176.142 202.743 178.207 196.216 182.232 191.414C184.036 189.256 188.174 190.577 187.59 193.68C186.391 200.042 181.992 206.052 178.424 211.358C174.018 217.902 169.1 224.041 163.826 229.883C162.048 231.852 158.829 229.476 160.474 227.306Z" fill="#252525"/>
<path d="M192.707 175.485C200.543 160.664 205.412 145.503 208.586 129.039C209.416 124.731 216.089 125.624 215.377 130.014C212.608 146.963 205.594 163.314 196.026 177.427C194.817 179.21 191.679 177.434 192.707 175.485Z" fill="#252525"/>
<path d="M210.668 106.172C209.306 100.918 209.099 95.4129 208.472 90.0185C207.987 85.8744 208.305 77.311 204.886 74.5961C203.147 73.2131 203.11 70.5235 204.871 69.1719C205.084 69.01 205.31 68.8392 205.524 68.6774C207.044 67.5266 208.882 67.7581 210.41 68.7152C215.12 71.6795 214.36 79.2383 214.563 83.9729C214.889 91.0674 215.492 98.8966 213.739 105.81C213.401 107.142 211.106 107.935 210.647 106.169L210.668 106.172Z" fill="#252525"/>
<path d="M201.77 44.8891C198.645 38.6871 195.51 32.4731 192.407 26.2531C189.963 21.3467 187.669 12.9112 183.594 9.42846C181.658 7.76058 181.709 5.13696 183.58 3.51251C183.82 3.31171 184.04 3.1079 184.28 2.9071C185.804 1.56438 188.131 1.89808 189.689 2.94514C194.456 6.13131 195.905 14.3386 197.847 19.3228C200.905 27.1619 203.92 34.995 206.945 42.8401C208.263 46.2589 203.376 48.0711 201.77 44.8891Z" fill="#252525"/>
</g>
<defs>
<clipPath id="clip0_38_795">
<rect width="208.694" height="235.915" fill="white" transform="matrix(-0.603592 -0.797293 -0.797293 0.603592 314.06 166.39)"/>
</clipPath>
</defs>
</svg>
